<?xml version="1.0" encoding="utf-8"?>
<!-- Generator: Adobe Illustrator 25.0.0, SVG Export Plug-In . SVG Version: 6.00 Build 0)  -->
<svg version="1.1" id="Layer_1" xmlns="http://www.w3.org/2000/svg" xmlns:xlink="http://www.w3.org/1999/xlink" x="0px" y="0px"
	 viewBox="0 0 227.7702179 60" style="enable-background:new 0 0 227.7702179 60;" xml:space="preserve">
<style type="text/css">
	.st0{fill:#231F20;}
	.st1{fill:#002F87;}
</style>
<g>
	<g>
		<g>
			<path class="st0" d="M30.3079948,57.2289085c0,0.8804855,0.0104408,1.6000099,0.0535088,1.975872
				c0.0321922,0.2688408,0.0539417,0.4402428,0.343668,0.4837418c0.1287651,0.0217514,0.3436661,0.0426331,0.4189262,0.0426331
				c0.0643826,0,0.086134,0.0435028,0.086134,0.075695c0,0.0426331-0.0539436,0.0748253-0.1613941,0.0748253
				c-0.515501,0-1.1167011-0.0321922-1.1706448-0.0321922c-0.0426311,0-0.6551418,0.0321922-0.9344273,0.0321922
				c-0.1070156,0-0.1500816-0.0217514-0.1500816-0.0748253c0-0.0321922,0.0213146-0.075695,0.0752583-0.075695
				c0.0856991,0,0.1931496-0.0208817,0.2792835-0.0426331c0.1931515-0.043499,0.2253418-0.225338,0.257534-0.4941826
				c0.0430679-0.3758583,0.0430679-1.0631943,0.0430679-1.9436798v-0.9126778c0-0.0435028-0.0217514-0.0539398-0.0539436-0.0539398
				h-3.9413013c-0.0321903,0-0.0535069,0.010437-0.0535069,0.0539398v0.9126778c0,0.8804855,0,1.5782585,0.0426311,1.9541206
				c0.0321922,0.2688408,0.0643845,0.4402428,0.343668,0.4837418c0.1396427,0.0217514,0.343668,0.0426331,0.4298019,0.0426331
				c0.0535069,0,0.0752583,0.0435028,0.0752583,0.075695c0,0.0426331-0.043066,0.0748253-0.1505165,0.0748253
				c-0.5263767,0-1.1275787-0.0321922-1.1706448-0.0321922c-0.0535088,0-0.6551437,0.0321922-0.9448681,0.0321922
				c-0.0970097,0-0.1505184-0.0217514-0.1505184-0.0748253c0-0.0321922,0.0213165-0.075695,0.0752583-0.075695
				c0.085701,0,0.2040253-0.0208817,0.2897263-0.0426331c0.1827087-0.043499,0.2040253-0.214901,0.2470913-0.4837418
				c0.0539436-0.3758621,0.0539436-1.0953865,0.0539436-1.975872v-1.6104507c0-1.4181747,0-1.675705-0.0217514-1.9654312
				c-0.0213165-0.3114777-0.0752583-0.4619942-0.386734-0.5046272c-0.0748253-0.0113106-0.2362175-0.0217514-0.3219166-0.0217514
				c-0.0321922,0-0.0752602-0.043499-0.0752602-0.0756912c0-0.0530739,0.0430679-0.0748253,0.1505184-0.0748253
				c0.4293671,0,1.031002,0.0217514,1.0845108,0.0217514c0.043066,0,0.644268-0.0217514,0.9344273-0.0217514
				c0.1074505,0,0.1505184,0.0217514,0.1505184,0.0748253c0,0.0321922-0.0430679,0.0756912-0.0752602,0.0756912
				c-0.0643826,0-0.1292019,0-0.2362175,0.0217514c-0.257967,0.0530739-0.3114758,0.181839-0.3332253,0.5046272
				c-0.0104408,0.2897263-0.0104408,0.5690079-0.0104408,1.9863129v0.1931496c0,0.0539398,0.0213165,0.0539398,0.0535069,0.0539398
				h3.9413013c0.0321922,0,0.0539436,0,0.0539436-0.0539398v-0.1931496c0-1.417305-0.0108757-1.6965866-0.0217514-1.9863129
				c-0.0213165-0.3114777-0.0643845-0.4619942-0.3758602-0.5046272c-0.0752583-0.0113106-0.2362175-0.0217514-0.3219166-0.0217514
				c-0.043066,0-0.0752583-0.043499-0.0752583-0.0756912c0-0.0530739,0.0430679-0.0748253,0.1505184-0.0748253
				c0.4184914,0,1.031002,0.0217514,1.0736332,0.0217514c0.0539436,0,0.6551437-0.0217514,0.9344292-0.0217514
				c0.1074505,0,0.1609573,0.0217514,0.1609573,0.0748253c0,0.0321922-0.0426311,0.0756912-0.0856991,0.0756912
				c-0.0643826,0-0.1183262,0-0.2362175,0.0217514c-0.2470913,0.0530739-0.3010349,0.181839-0.3223515,0.5046272
				c-0.0213165,0.2897263-0.0213165,0.5472565-0.0213165,1.9654312V57.2289085z"/>
			<path class="st0" d="M44.5828133,55.6184578c0-1.4181747,0-1.675705-0.0217514-1.9654312
				c-0.0213165-0.3114777-0.0752563-0.4619942-0.386734-0.5046272c-0.0748253-0.0113106-0.2362175-0.0217514-0.3219147-0.0217514
				c-0.0321922,0-0.0752602-0.043499-0.0752602-0.0756912c0-0.0530739,0.0430679-0.0748253,0.1505165-0.0748253
				c0.4293671,0,1.0414429,0.0217514,1.0953865,0.0217514c0.0643845,0,2.0402527,0.0104408,2.2551537,0
				c0.1827126-0.0113106,0.3545456-0.0435028,0.4298019-0.0539436c0.0426331-0.0104408,0.085701-0.0426331,0.1287689-0.0426331
				c0.0321922,0,0.0430679,0.0426331,0.0430679,0.0852661c0,0.0643845-0.0539436,0.1722679-0.0752602,0.4298019
				c-0.0108757,0.0861359-0.0321922,0.4941864-0.0539436,0.6012001c-0.0104408,0.0435028-0.0426331,0.0965767-0.0856972,0.0965767
				c-0.0539436,0-0.0752602-0.0426331-0.0752602-0.1174583c0-0.0643806-0.0108757-0.214901-0.0535088-0.3227844
				c-0.0648193-0.1496468-0.1613922-0.214901-0.6768951-0.2792854c-0.1609573-0.0208817-1.2563438-0.0321922-1.3637924-0.0321922
				c-0.0430679,0-0.0535088,0.0321922-0.0535088,0.0965767v2.4813652c0,0.0643845,0,0.0965767,0.0535088,0.0965767
				c0.1183243,0,1.3637924,0,1.5786934-0.0217514c0.2257767-0.0208817,0.3649864-0.0321922,0.4619942-0.1287689
				c0.0643845-0.0643806,0.1074524-0.1183243,0.1396446-0.1183243c0.0321884,0,0.0535049,0.0217514,0.0535049,0.075695
				c0,0.0539398-0.0535049,0.2035904-0.0752563,0.5046234c-0.0213165,0.1827087-0.0430679,0.5263786-0.0430679,0.5907593
				c0,0.0748253-0.0213165,0.171402-0.085701,0.171402c-0.0430679,0-0.0643806-0.0321922-0.0643806-0.0852661
				c0-0.0861359,0-0.1827087-0.0430679-0.3010368c-0.0321922-0.1287651-0.1178932-0.2366486-0.4833107-0.2792816
				c-0.257534-0.0321922-1.2672195-0.0426331-1.4281769-0.0426331c-0.0539436,0-0.0643845,0.0321922-0.0643845,0.0643845v0.7621574
				c0,0.3114777-0.0108757,1.3746719,0,1.5573807c0.0213165,0.6125107,0.1931496,0.7299652,1.1275787,0.7299652
				c0.2470932,0,0.697773,0,0.9448662-0.0965729c0.2470932-0.1070175,0.3758621-0.2679749,0.4298019-0.6333923
				c0.0213165-0.1070175,0.0430679-0.1392097,0.0965767-0.1392097s0.0643806,0.0748253,0.0643806,0.1392097
				c0,0.0643806-0.0752563,0.6873322-0.1287651,0.8804855c-0.0643845,0.2366486-0.1613922,0.2366486-0.5263748,0.2366486
				c-0.7086525,0-1.2563438-0.0217476-1.6430817-0.0321884c-0.3976097-0.0217514-0.644268-0.0217514-0.7839088-0.0217514
				c-0.0217514,0-0.2040253,0-0.4080505,0.0104408c-0.1827087,0.0113106-0.3976097,0.0217514-0.5476913,0.0217514
				c-0.0970116,0-0.1505203-0.0217514-0.1505203-0.0748253c0-0.0321922,0.0213165-0.075695,0.0752602-0.075695
				c0.0856972,0,0.2040253-0.0321922,0.2897263-0.0426331c0.1827087-0.0321884,0.2040253-0.214901,0.2470894-0.4837418
				c0.0539436-0.3758621,0.0539436-1.0953865,0.0539436-1.975872V55.6184578z"/>
			<path class="st0" d="M62.8863716,53.1588402c0.1178932-0.301033,0.1609573-0.3549767,0.2253418-0.3549767
				c0.0965767,0,0.1287651,0.1296349,0.2257767,0.3332253c0.171833,0.3871727,1.6861458,4.1562042,2.2660332,5.5421829
				c0.3436661,0.8161011,0.6011963,0.9335594,0.8052216,0.9979401c0.1396408,0.0435028,0.2792892,0.0539436,0.3758621,0.0539436
				c0.0539398,0,0.1183243,0.0217514,0.1183243,0.075695c0,0.0530739-0.1074524,0.0748253-0.2148972,0.0748253
				c-0.1396484,0-0.8378525,0-1.4929962-0.0217514c-0.1822739-0.0104408-0.3327942-0.0104408-0.3327942-0.0643845
				c0-0.0426331,0.0217514-0.0426331,0.0643845-0.0643845c0.0539398-0.0208817,0.1505127-0.0965729,0.0861359-0.2470932
				l-0.848732-2.0941963c-0.0213165-0.0426331-0.0321884-0.0530701-0.085701-0.0530701h-2.1803284
				c-0.0426331,0-0.0748253,0.0208778-0.0965767,0.0748215l-0.5368156,1.460804
				c-0.0861359,0.2253418-0.1396446,0.4506836-0.1396446,0.6116409c0,0.1827126,0.1609612,0.2470932,0.3223534,0.2470932h0.085701
				c0.0752563,0,0.0965729,0.0321922,0.0965729,0.075695c0,0.0530739-0.0535088,0.0748253-0.1396408,0.0748253
				c-0.2253418,0-0.7408447-0.0321922-0.8482933-0.0321922c-0.0965767,0-0.5690117,0.0321922-0.9557457,0.0321922
				c-0.1183243,0-0.1827087-0.0217514-0.1827087-0.0748253c0-0.0435028,0.0430679-0.075695,0.0861359-0.075695
				c0.0643806,0,0.2040253-0.0104408,0.2792816-0.0208817c0.4293671-0.0539398,0.6120758-0.3758583,0.7943535-0.8378525
				L62.8863716,53.1588402z M63.9386902,56.9609337c0.0430679,0,0.0430679-0.0217514,0.0321922-0.0652504l-0.9344292-2.5022507
				c-0.0535049-0.1392059-0.1074486-0.1392059-0.1609573,0l-0.8804855,2.5022507
				c-0.0108757,0.043499,0,0.0652504,0.0321922,0.0652504H63.9386902z"/>
			<path class="st0" d="M80.1693649,57.2506599c0,1.3424797,0.0213165,1.8897362,0.1931534,2.0506935
				c0.1505203,0.1505203,0.5155029,0.214901,1.2563477,0.214901c0.4941788,0,0.9131088-0.0104408,1.1384506-0.2792816
				c0.1183243-0.1392097,0.1935806-0.3323593,0.2257767-0.5150681c0.010437-0.0643845,0.0426331-0.1183243,0.0965729-0.1183243
				c0.0430679,0,0.0643845,0.043499,0.0643845,0.1400757c0,0.0965729-0.0643845,0.6438332-0.1396408,0.9126778
				c-0.0643845,0.214901-0.0965729,0.2470894-0.6012039,0.2470894c-0.6768951,0-1.2028351-0.0113106-1.6435089-0.0321884
				c-0.4293671-0.0113106-0.7517242-0.0217514-1.0310059-0.0217514c-0.0426331,0-0.2040253,0-0.3862991,0.0104408
				c-0.1935883,0.0113106-0.3976135,0.0217514-0.5476913,0.0217514c-0.0970154,0-0.1505203-0.0217514-0.1505203-0.0748253
				c0-0.0321922,0.0213165-0.075695,0.0752563-0.075695c0.085701,0,0.2040253-0.0208817,0.2897263-0.0426331
				c0.1827087-0.043499,0.2040253-0.214901,0.2470932-0.4837418c0.0539474-0.3758621,0.0539474-1.0953865,0.0539474-1.975872
				v-1.6104507c0-1.4181747,0-1.675705-0.0217514-1.9654312c-0.0213165-0.3114777-0.075264-0.4619942-0.3867416-0.5046272
				c-0.0748215-0.0113106-0.2362137-0.0217514-0.3219147-0.0217514c-0.0321884,0-0.0752563-0.043499-0.0752563-0.0756912
				c0-0.0530739,0.0430679-0.0748253,0.1505203-0.0748253c0.4293671,0,1.0201263,0.0217514,1.0736313,0.0217514
				c0.0430679,0,0.7521515-0.0217514,1.0418777-0.0217514c0.0965729,0,0.1505203,0.0217514,0.1505203,0.0748253
				c0,0.0321922-0.0430679,0.0643806-0.075264,0.0643806c-0.0643768,0-0.2040253,0.0113106-0.31147,0.0217514
				c-0.2792892,0.0539436-0.3327942,0.1931496-0.3545456,0.5159378c-0.0104446,0.2897263-0.0104446,0.5472565-0.0104446,1.9654312
				V57.2506599z"/>
			<path class="st0" d="M97.6890182,57.2289085c0,0.8804855,0,1.6000099,0.0426331,1.975872
				c0.0321884,0.2688408,0.0752563,0.4402428,0.3654175,0.4837418c0.1287689,0.0217514,0.3436661,0.0426331,0.4293671,0.0426331
				c0.0643845,0,0.0752563,0.0435028,0.0752563,0.075695c0,0.0426331-0.0430679,0.0748253-0.1505127,0.0748253
				c-0.5155029,0-1.1167068-0.0321922-1.1706467-0.0321922c-0.0426331,0-0.6977768,0.0321922-0.9770584,0.0321922
				c-0.1074524,0-0.1505203-0.0217514-0.1505203-0.0748253c0-0.0321922,0.0217514-0.0643845,0.0752563-0.0643845
				c0.0861359,0,0.1931534-0.0217514,0.2792892-0.0435028c0.1931458-0.0426292,0.2470932-0.2253418,0.2792816-0.4941826
				c0.0430679-0.3758621,0.0430679-1.0953865,0.0430679-1.975872v-3.8342857l-1.3642273,0.0217514
				c-0.5907669,0.0104408-0.8161011,0.0748253-0.9557495,0.2897263c-0.1074448,0.1618271-0.1178894,0.2262115-0.1505127,0.2905922
				c-0.0213165,0.0748253-0.0535126,0.0852661-0.0965805,0.0852661c-0.0213165,0-0.0643768-0.0208817-0.0643768-0.0748253
				c0-0.0965729,0.1827087-0.912674,0.2040253-0.988369c0.0108719-0.0530739,0.0643768-0.1713982,0.0965729-0.1713982
				c0.0643845,0,0.1613922,0.0748215,0.4189224,0.1070137c0.2684097,0.0321922,0.6338272,0.0435028,0.7412796,0.0435028h3.5654449
				c0.31147,0,0.5263748-0.0217514,0.6764603-0.0435028c0.1396408-0.0208817,0.2257767-0.0426331,0.2684021-0.0426331
				c0.0430679,0,0.0430679,0.0539436,0.0430679,0.1070175c0,0.2792854-0.0321884,0.9344254-0.0321884,1.0423126
				c0,0.0748253-0.0430679,0.1174545-0.085701,0.1174545c-0.0430679,0-0.0648193-0.0321884-0.0752563-0.1609573
				l-0.0108795-0.0965729c-0.0321884-0.2792854-0.2362137-0.4828758-1.1384506-0.5046272l-1.1810837-0.0217514V57.2289085z"/>
			<path class="st0" d="M118.8915634,57.2289085c0,0.8804855,0.010437,1.6000099,0.0539398,1.975872
				c0.032196,0.2688408,0.0530777,0.4402428,0.3436737,0.4837418c0.1287613,0.0217514,0.3436661,0.0426331,0.4184875,0.0426331
				c0.0643845,0,0.0861359,0.0435028,0.0861359,0.075695c0,0.0426331-0.0539398,0.0748253-0.1609573,0.0748253
				c-0.5159378,0-1.1171417-0.0321922-1.1710815-0.0321922c-0.0426331,0-0.6551437,0.0321922-0.9344254,0.0321922
				c-0.1070175,0-0.1505203-0.0217514-0.1505203-0.0748253c0-0.0321922,0.0217514-0.075695,0.0756912-0.075695
				c0.0861359,0,0.1931534-0.0208817,0.2792892-0.0426331c0.1931458-0.043499,0.2253418-0.225338,0.2575302-0.4941826
				c0.0426331-0.3758583,0.0426331-1.0631943,0.0426331-1.9436798v-0.9126778c0-0.0435028-0.0208817-0.0539398-0.0530701-0.0539398
				h-3.9413071c-0.0330582,0-0.0539398,0.010437-0.0539398,0.0539398v0.9126778c0,0.8804855,0,1.5782585,0.0426331,1.9541206
				c0.0321884,0.2688408,0.0643845,0.4402428,0.3436661,0.4837418c0.1400757,0.0217514,0.3436661,0.0426331,0.4298019,0.0426331
				c0.0539474,0,0.0748215,0.0435028,0.0748215,0.075695c0,0.0426331-0.0426254,0.0748253-0.1496429,0.0748253
				c-0.5263748,0-1.1284485-0.0321922-1.1710815-0.0321922c-0.0539398,0-0.6551437,0.0321922-0.94487,0.0321922
				c-0.0965729,0-0.1505127-0.0217514-0.1505127-0.0748253c0-0.0321922,0.0217514-0.075695,0.0748215-0.075695
				c0.0861359,0,0.2044601-0.0208817,0.290596-0.0426331c0.181839-0.043499,0.2035904-0.214901,0.2470932-0.4837418
				c0.0530701-0.3758621,0.0530701-1.0953865,0.0530701-1.975872v-1.6104507c0-1.4181747,0-1.675705-0.0208817-1.9654312
				c-0.0217514-0.3114777-0.0756912-0.4619942-0.3871689-0.5046272c-0.0748215-0.0113106-0.2357788-0.0217514-0.3219147-0.0217514
				c-0.032196,0-0.0756989-0.043499-0.0756989-0.0756912c0-0.0530739,0.0435028-0.0748253,0.1505203-0.0748253
				c0.4298019,0,1.0310059,0.0217514,1.0849457,0.0217514c0.0426331,0,0.6447067-0.0217514,0.9344254-0.0217514
				c0.1070175,0,0.1505203,0.0217514,0.1505203,0.0748253c0,0.0321922-0.0435028,0.0756912-0.0756912,0.0756912
				c-0.0643845,0-0.1287689,0-0.2357864,0.0217514c-0.2575302,0.0530739-0.3114777,0.181839-0.3332214,0.5046272
				c-0.0104446,0.2897263-0.0104446,0.5690079-0.0104446,1.9863129v0.1931496c0,0.0539398,0.0208817,0.0539398,0.0539398,0.0539398
				h3.9413071c0.0321884,0,0.0530701,0,0.0530701-0.0539398v-0.1931496c0-1.417305-0.010437-1.6965866-0.0208817-1.9863129
				c-0.0217514-0.3114777-0.0643845-0.4619942-0.3758621-0.5046272c-0.0756912-0.0113106-0.2366486-0.0217514-0.3227844-0.0217514
				c-0.0426331,0-0.0748215-0.043499-0.0748215-0.0756912c0-0.0530739,0.0426331-0.0748253,0.1505203-0.0748253
				c0.4184875,0,1.0309982,0.0217514,1.0736313,0.0217514c0.0539398,0,0.6551437-0.0217514,0.9344254-0.0217514
				c0.1070175,0,0.1609573,0.0217514,0.1609573,0.0748253c0,0.0321922-0.0426254,0.0756912-0.0861282,0.0756912
				c-0.0643845,0-0.1174622,0-0.2357864,0.0217514c-0.2470932,0.0530739-0.301033,0.181839-0.3219147,0.5046272
				c-0.0217514,0.2897263-0.0217514,0.5472565-0.0217514,1.9654312V57.2289085z"/>
			<path class="st0" d="M133.0915527,59.0229416c-0.9239807-0.7952232-1.1493225-1.8366661-1.1493225-2.7067108
				c0-0.6125107,0.2253418-1.675705,1.0631866-2.491806c0.5690155-0.5472565,1.4286194-0.9770584,2.8781128-0.9770584
				c0.3758545,0,0.912674,0.0321922,1.3746643,0.1070137c0.3541107,0.0643845,0.6551514,0.1287689,0.966629,0.1400795
				c0.0965729,0,0.1183167,0.0426292,0.1183167,0.0965729c0,0.0748253-0.0217438,0.1827087-0.0435028,0.5150681
				c-0.010437,0.301033-0.010437,0.8056602-0.020874,0.9344254c-0.0113068,0.1400795-0.0539398,0.1931496-0.1078796,0.1931496
				c-0.0643921,0-0.0748291-0.0643806-0.0748291-0.1931496c0-0.3541069-0.1505127-0.7195244-0.3976135-0.912674
				c-0.3332214-0.2792854-1.0205536-0.5046272-1.8575439-0.5046272c-1.2137146,0-1.7940369,0.3219147-2.1263885,0.6333923
				c-0.6986389,0.6447029-0.8491669,1.460804-0.8491669,2.3839226c0,1.7513962,1.3859863,3.3079071,3.4044952,3.3079071
				c0.7090759,0,1.1815186-0.0530739,1.557373-0.4289322c0.2044525-0.2044601,0.3332214-0.5907593,0.3654175-0.7630272
				c0.021759-0.0965767,0.032196-0.1287689,0.0965729-0.1287689c0.0426331,0,0.0861359,0.0643845,0.0861359,0.1287689
				c0,0.0643806-0.1287689,0.8596039-0.2253418,1.1710777c-0.0539398,0.1713982-0.0756989,0.2035904-0.2366486,0.2679749
				C137.5270386,59.9460564,136.8179626,60,136.2054443,60C134.788147,60,133.8319702,59.6667747,133.0915527,59.0229416z"/>
			<path class="st0" d="M153.005127,53.1588402c0.1183319-0.301033,0.1618347-0.3549767,0.2262115-0.3549767
				c0.0965881,0,0.1287689,0.1296349,0.2253418,0.3332253c0.171402,0.3871727,1.6861572,4.1562042,2.2655945,5.5421829
				c0.3436737,0.8161011,0.6020813,0.9335594,0.8056641,0.9979401c0.1400757,0.0435028,0.2792816,0.0539436,0.3758698,0.0539436
				c0.0539398,0,0.1183167,0.0217514,0.1183167,0.075695c0,0.0530739-0.1078796,0.0748253-0.2149048,0.0748253
				c-0.1392059,0-0.8378448,0-1.4929962-0.0217514c-0.1827087-0.0104408-0.3323517-0.0104408-0.3323517-0.0643845
				c0-0.0426331,0.0208893-0.0426331,0.0643921-0.0643845c0.0530701-0.0208817,0.1496429-0.0965729,0.0852509-0.2470932
				l-0.8482819-2.0941963c-0.0208893-0.0426331-0.032196-0.0530701-0.0861359-0.0530701h-2.1794586
				c-0.0435028,0-0.0756989,0.0208778-0.0965881,0.0748215l-0.537674,1.460804
				c-0.0852661,0.2253418-0.1392212,0.4506836-0.1392212,0.6116409c0,0.1827126,0.160965,0.2470932,0.3219299,0.2470932h0.0861359
				c0.0748138,0,0.0965729,0.0321922,0.0965729,0.075695c0,0.0530739-0.0539551,0.0748253-0.1392059,0.0748253
				c-0.2262115,0-0.7412872-0.0321922-0.8491669-0.0321922c-0.0965729,0-0.5690155,0.0321922-0.955307,0.0321922
				c-0.1183319,0-0.1827087-0.0217514-0.1827087-0.0748253c0-0.0435028,0.0426331-0.075695,0.0861359-0.075695
				c0.0643768,0,0.2035828-0.0104408,0.2792816-0.0208817c0.4297943-0.0539398,0.6116333-0.3758583,0.794342-0.8378525
				L153.005127,53.1588402z M154.0578918,56.9609337c0.0426331,0,0.0426331-0.0217514,0.0321808-0.0652504l-0.9344177-2.5022507
				c-0.0539398-0.1392059-0.1070251-0.1392059-0.160965,0l-0.8804779,2.5022507c-0.011322,0.043499,0,0.0652504,0.0321808,0.0652504
				H154.0578918z"/>
			<path class="st0" d="M169.2140656,55.6184578c0-1.4181747,0-1.675705-0.0208893-1.9654312
				c-0.0217438-0.3114777-0.0756989-0.4619942-0.3871613-0.5046272c-0.0748291-0.0113106-0.2357941-0.0217514-0.3219299-0.0217514
				c-0.0321808,0-0.0756836-0.043499-0.0756836-0.0756912c0-0.0530739,0.0435028-0.0748253,0.1505127-0.0748253
				c0.4298096,0,1.0632019,0.0217514,1.1171417,0.0217514c0.0965729,0,0.8917999-0.0217514,1.1815186-0.0217514
				c0.6011963,0,1.2667847,0.0539436,1.7609711,0.3976097c0.2366486,0.1713982,0.6551361,0.6116409,0.6551361,1.245903
				c0,0.6760254-0.2792816,1.3311691-1.1597595,2.0828896c0.773468,0.9666176,1.4286041,1.7940292,1.9758606,2.3630371
				c0.5046387,0.5150681,0.8161011,0.6012039,1.0527649,0.6333923c0.1827087,0.0321922,0.2792816,0.0321922,0.3332214,0.0321922
				c0.0530701,0,0.0852661,0.0435028,0.0852661,0.075695c0,0.0530739-0.0530701,0.0748253-0.2253418,0.0748253h-0.5907593
				c-0.5368195,0-0.7725983-0.0539436-1.0092468-0.1827126c-0.4080505-0.214901-0.7517242-0.6551437-1.2885437-1.3424759
				c-0.3976135-0.4941864-0.8161011-1.0840759-1.0205536-1.3311691c-0.0426331-0.0435028-0.0643921-0.0539436-0.1287689-0.0539436
				l-1.2032776-0.0217514c-0.0426331,0-0.0643768,0.0217514-0.0643768,0.075695v0.2140312
				c0,0.8813553,0,1.5895691,0.0435028,1.9654312c0.0321808,0.2688408,0.0861359,0.4402428,0.3758545,0.4837418
				c0.1287689,0.0217514,0.3323517,0.0426331,0.4184875,0.0426331c0.0643921,0,0.0756989,0.0435028,0.0756989,0.075695
				c0,0.0426331-0.0435028,0.0748253-0.1505127,0.0748253c-0.5159454,0-1.1171417-0.0321922-1.1597748-0.0321922
				c-0.0113068,0-0.6446991,0.0321922-0.934433,0.0321922c-0.0965729,0-0.1505127-0.0217514-0.1505127-0.0748253
				c0-0.0321922,0.0217438-0.075695,0.0748291-0.075695c0.0861206,0,0.2044525-0.0208817,0.2905884-0.0426331
				c0.181839-0.043499,0.2035828-0.214901,0.2470856-0.4837418c0.0530853-0.3758621,0.0530853-1.0953865,0.0530853-1.975872
				V55.6184578z M170.0301666,56.3910561c0,0.0539436,0.0217438,0.0861359,0.0643768,0.1183243
				c0.1400757,0.075695,0.6229553,0.1400795,1.0423126,0.1400795c0.2253418,0,0.4828796-0.0113106,0.7082214-0.1618271
				c0.3227844-0.2140312,0.56987-0.6977768,0.56987-1.3955536c0-1.1388893-0.6229401-1.7940292-1.6330719-1.7940292
				c-0.2784119,0-0.5794525,0.0321884-0.6760254,0.0539398c-0.0435028,0.0217514-0.0756836,0.0539436-0.0756836,0.1070175
				V56.3910561z"/>
			<path class="st0" d="M187.5920105,55.6184578c0-1.4181747,0-1.675705-0.0208893-1.9654312
				c-0.0217438-0.3114777-0.0756836-0.4619942-0.3871613-0.5046272c-0.0748291-0.0113106-0.2357788-0.0217514-0.3219147-0.0217514
				c-0.032196,0-0.0748291-0.043499-0.0748291-0.0756912c0-0.0530739,0.0426331-0.0748253,0.1496429-0.0748253
				c0.4298096,0,1.0423126,0.0217514,1.0953979,0.0217514c0.0643768,0,2.0411224,0.0104408,2.256012,0
				c0.181839-0.0113106,0.3541107-0.0435028,0.4289398-0.0539436c0.0435028-0.0104408,0.0861359-0.0426331,0.1287689-0.0426331
				c0.0321808,0,0.0435028,0.0426331,0.0435028,0.0852661c0,0.0643845-0.0539551,0.1722679-0.0756989,0.4298019
				c-0.010437,0.0861359-0.032196,0.4941864-0.0530701,0.6012001c-0.0113068,0.0435028-0.0435028,0.0965767-0.0861359,0.0965767
				c-0.0539398,0-0.0748291-0.0426331-0.0748291-0.1174583c0-0.0643806-0.0113068-0.214901-0.0539398-0.3227844
				c-0.0643768-0.1496468-0.1609497-0.214901-0.6768951-0.2792854c-0.1609497-0.0208817-1.2563477-0.0321922-1.3642273-0.0321922
				c-0.0426331,0-0.0530701,0.0321922-0.0530701,0.0965767v2.4813652c0,0.0643845,0,0.0965767,0.0530701,0.0965767
				c0.1183319,0,1.3642273,0,1.5791321-0.0217514c0.2253418-0.0208817,0.3654175-0.0321922,0.4619904-0.1287689
				c0.0643768-0.0643806,0.1070099-0.1183243,0.1392059-0.1183243s0.0539398,0.0217514,0.0539398,0.075695
				c0,0.0539398-0.0539398,0.2035904-0.0748138,0.5046234c-0.021759,0.1827087-0.0435028,0.5263786-0.0435028,0.5907593
				c0,0.0748253-0.0208893,0.171402-0.0861359,0.171402c-0.0426331,0-0.0643921-0.0321922-0.0643921-0.0852661
				c0-0.0861359,0-0.1827087-0.0426331-0.3010368c-0.0321808-0.1287651-0.1183167-0.2366486-0.4828644-0.2792816
				c-0.2584076-0.0321922-1.2676544-0.0426331-1.4286194-0.0426331c-0.0539398,0-0.0643768,0.0321922-0.0643768,0.0643845v0.7621574
				c0,0.3114777-0.0113068,1.3746719,0,1.5573807c0.020874,0.6125107,0.1931458,0.7299652,1.1275787,0.7299652
				c0.2470856,0,0.6977692,0,0.94487-0.0965729c0.2470856-0.1070175,0.3758545-0.2679749,0.4297943-0.6333923
				c0.021759-0.1070175,0.0426331-0.1392097,0.0965729-0.1392097s0.0643921,0.0748253,0.0643921,0.1392097
				c0,0.0643806-0.0748291,0.6873322-0.1287689,0.8804855c-0.0643921,0.2366486-0.160965,0.2366486-0.5263824,0.2366486
				c-0.7090912,0-1.2563477-0.0217476-1.6435089-0.0321884c-0.3967438-0.0217514-0.6438293-0.0217514-0.783905-0.0217514
				c-0.0208893,0-0.203598,0-0.4080658,0.0104408c-0.1827087,0.0113106-0.3967285,0.0217514-0.5472565,0.0217514
				c-0.0965729,0-0.1505127-0.0217514-0.1505127-0.0748253c0-0.0321922,0.021759-0.075695,0.0748291-0.075695
				c0.0861359,0,0.2044525-0.0321922,0.2905884-0.0426331c0.1827087-0.0321884,0.203598-0.214901,0.2471008-0.4837418
				c0.0530701-0.3758621,0.0530701-1.0953865,0.0530701-1.975872V55.6184578z"/>
		</g>
		<g>
			<path class="st1" d="M19.2579975,2.1524897C19.9201012,0.3314869,20.1406574,0,20.4717083,0
				c0.3310528,0,0.5520439,0.2766741,1.2141476,1.9871813c0.8274117,2.096807,9.4908791,24.8858795,12.8566475,33.2731056
				c1.9867439,4.9113998,3.5867577,5.7936249,4.7456551,6.1251106c0.8278465,0.2758064,1.6552582,0.3306198,2.2073021,0.3306198
				c0.3310509,0,0.551609,0.0556831,0.551609,0.3314857c0,0.330616-0.4963608,0.4411125-1.103653,0.4411125
				c-0.8274117,0-4.8557167,0-8.6630287-0.1104965c-1.0484047-0.0548134-1.6552601-0.0548134-1.6552601-0.3862991
				c0-0.2201195,0.165308-0.330616,0.3858643-0.3854294c0.3310509-0.1104965,0.6625385-0.6072922,0.3310509-1.490387
				l-5.1315212-13.5744305c-0.1104965-0.2201214-0.2205563-0.3306179-0.4967957-0.3306179H13.8502359
				c-0.2758036,0-0.4415474,0.165308-0.5516081,0.4411125l-3.3109531,9.7671165
				c-0.4967957,1.3790207-0.7726002,2.7040977-0.7726002,3.6968193c0,1.1040878,1.1588993,1.6000137,2.0968075,1.6000137h0.552043
				c0.3863001,0,0.5516081,0.1104927,0.5516081,0.3314857c0,0.330616-0.3310518,0.4411125-0.8278475,0.4411125
				c-1.3242073,0-3.6968184-0.1653099-4.3036742-0.1653099c-0.6072907,0-3.6420057,0.1653099-6.2356081,0.1653099
				C0.3310519,42.4886169,0,42.3781204,0,42.0475044c0-0.220993,0.2209913-0.3314857,0.4967953-0.3314857
				c0.3862997,0,1.1588992-0.0548134,1.6000117-0.1096268c2.5383544-0.3314857,3.6420054-2.4282951,4.6351614-5.1872063
				L19.2579975,2.1524897z M24.9963741,24.2246456c0.2762394,0,0.2762394-0.1661777,0.2209911-0.3862991L19.9753494,8.9397058
				c-0.2762394-0.8282824-0.5520439-0.8282824-0.8278484,0l-4.8557167,14.8986406
				c-0.1104956,0.2758026,0,0.3862991,0.165308,0.3862991H24.9963741z"/>
			<path class="st1" d="M43.0367432,37.3022842c-5.3525124-4.8009071-6.6767197-11.0913277-6.6767197-16.3333454
				c0-3.6976871,1.268959-10.1534176,6.1803627-15.0639477C45.8509026,2.5936022,50.872364,0,59.3700867,0
				c2.2073021,0,5.2972641,0.1661785,8.0009308,0.6621038c2.0968018,0.3862997,3.8625641,0.7177867,5.6283188,0.8282822
				c0.6072845,0.0548128,0.7173462,0.275804,0.7173462,0.606421c0,0.4419825-0.1653061,1.1040862-0.2758026,3.0903974
				c-0.1104965,1.821003-0.1104965,4.8557177-0.165741,5.684c-0.0548172,0.8274126-0.1653137,1.1580296-0.4963608,1.1580296
				c-0.3862991,0-0.4415512-0.3863001-0.4415512-1.1580296c0-2.1524897-0.8826599-4.4146051-2.3173599-5.6291871
				C68.0883713,3.587193,63.8395042,2.096807,58.9837875,2.096807c-7.3388252,0-10.760273,2.1524897-12.6913376,4.0283055
				c-4.0283051,3.8629971-4.9662132,8.7735271-4.9662132,14.401844c0,10.5397186,8.1114235,20.1963406,19.9201012,20.1963406
				c4.1383667,0,7.3940735-0.4967957,9.6009369-2.7589111c1.158905-1.2145805,1.8762512-3.6420059,2.0419998-4.6355972
				c0.1100616-0.6064186,0.2205505-0.8274117,0.5516052-0.8274117c0.2758026,0,0.3862991,0.3862991,0.3862991,0.8274117
				c0,0.3862991-0.6621017,5.1872063-1.2141495,7.0630226c-0.3310471,1.0484009-0.4411087,1.1588974-1.4347,1.6000099
				c-2.2068634,0.8830948-6.4004822,1.2693939-9.9319916,1.2693939
				C52.9691696,43.2612152,47.3961029,41.2200928,43.0367432,37.3022842z"/>
			<path class="st1" d="M92.1424866,2.1524897C92.8045883,0.3314869,93.0251465,0,93.3561935,0
				c0.3310547,0,0.5520477,0.2766741,1.2141495,1.9871813c0.8274155,2.096807,9.4908829,24.8858795,12.8566437,33.2731056
				c1.9867477,4.9113998,3.5867615,5.7936249,4.7456589,6.1251106c0.8274155,0.2758064,1.6556931,0.3306198,2.2073059,0.3306198
				c0.3306122,0,0.5516052,0.0556831,0.5516052,0.3314857c0,0.330616-0.4967957,0.4411125-1.1032181,0.4411125
				c-0.8282776,0-4.8561478,0-8.6634674-0.1104965c-1.0484009-0.0548134-1.6552582-0.0548134-1.6552582-0.3862991
				c0-0.2201195,0.1653061-0.330616,0.3858643-0.3854294c0.3310547-0.1104965,0.6625366-0.6072922,0.3310547-1.490387
				l-5.1315231-13.5744305c-0.1104965-0.2201214-0.2205582-0.3306179-0.4967957-0.3306179H86.734726
				c-0.2758102,0-0.4415512,0.165308-0.5516129,0.4411125l-3.3109512,9.7671165
				c-0.4967957,1.3790207-0.7725983,2.7040977-0.7725983,3.6968193c0,1.1040878,1.1588974,1.6000137,2.0968018,1.6000137h0.5520477
				c0.3862991,0,0.5516052,0.1104927,0.5516052,0.3314857c0,0.330616-0.3310471,0.4411125-0.8278427,0.4411125
				c-1.3242111,0-3.6968231-0.1653099-4.3036804-0.1653099c-0.6072845,0-3.6420059,0.1653099-6.2356033,0.1653099
				c-0.7173538,0-1.0484085-0.1104965-1.0484085-0.4411125c0-0.220993,0.220993-0.3314857,0.4967957-0.3314857
				c0.3863068,0,1.158905-0.0548134,1.6000137-0.1096268c2.538353-0.3314857,3.6420059-2.4282951,4.6351624-5.1872063
				L92.1424866,2.1524897z M97.8808594,24.2246456c0.2762451,0,0.2762451-0.1661777,0.220993-0.3862991L92.8598328,8.9397058
				c-0.2762375-0.8282824-0.5520401-0.8282824-0.8278427,0l-4.8557205,14.8986406
				c-0.1104965,0.2758026,0,0.3862991,0.1653061,0.3862991H97.8808594z"/>
			<path class="st1" d="M119.9491043,16.7753258c0-8.6082191,0-10.1534176-0.1104965-11.9187374
				c-0.1104965-1.8766859-0.5516129-2.7597809-2.372612-3.1452107c-0.4411163-0.1104956-1.3790207-0.1661785-1.8758163-0.1661785
				c-0.220993,0-0.4419785-0.1104957-0.4419785-0.3306168c0-0.3314869,0.2766724-0.4419826,0.8830948-0.4419826
				c2.4831009,0,5.9598007,0.1661785,6.2356033,0.1661785c0.6621017,0,4.1379318-0.1661785,7.4493179-0.1661785
				c5.4630127,0,15.5607452-0.4959253,22.1269684,6.290421c2.7589111,2.8694057,5.3525238,7.4493198,5.3525238,14.0164146
				c0,6.9525242-2.8694153,12.3050365-5.9598083,15.5607433c-2.3726196,2.4831047-7.3388214,6.3452339-16.7196503,6.3452339
				c-2.3726044,0-5.2968292-0.1653099-7.6694336-0.330616c-2.428299-0.1661797-4.3041153-0.3314896-4.5799179-0.3314896
				c-0.1104965,0-1.0484009,0-2.2072983,0.0548134c-1.1040878,0-2.372612,0.1104965-3.2008972,0.1104965
				c-0.6064224,0-0.882225-0.1104965-0.882225-0.4411125c0-0.1653099,0.1104965-0.3314857,0.4411163-0.3314857
				c0.4967957,0,1.1588974-0.1096268,1.6556931-0.2201233c1.1032181-0.2209892,1.3790207-1.4347038,1.6000137-3.0355835
				c0.2758026-2.3169289,0.2758026-6.6767216,0.2758026-11.9735508V16.7753258z M124.5847015,22.7342587
				c0,5.8493099,0.0548096,10.9260197,0.1096191,11.9744205c0.055687,1.3790207,0.1661835,3.5863228,0.6072922,4.193615
				c0.7169189,1.0484047,2.8694077,2.2073021,9.3808212,2.2073021c5.1315155,0,9.8767395-1.8766861,13.1324463-5.1323929
				c2.8694153-2.8137207,4.4146118-8.1114216,4.4146118-13.1872616c0-7.0082073-3.0347137-11.533308-5.297699-13.9059191
				c-5.1863403-5.4621382-11.4767609-6.2347374-18.0438538-6.2347374c-1.1032181,0-3.1452103,0.1653085-3.5863266,0.3862998
				c-0.4967957,0.2201211-0.6621017,0.4959252-0.6621017,1.1032164c-0.0548096,1.8758159-0.0548096,7.5041332-0.0548096,11.7534294
				V22.7342587z"/>
			<path class="st1" d="M165.1365967,26.4867611c0,5.2968292,0,9.6566219,0.2758026,11.9735508
				c0.1653137,1.6008797,0.4959259,2.8145943,2.1516266,3.0355835c0.7725983,0.1104965,1.9863129,0.2201233,2.4831085,0.2201233
				c0.3314819,0,0.4411011,0.1661758,0.4411011,0.3314857c0,0.2758026-0.2758026,0.4411125-0.8822174,0.4411125
				c-3.0347137,0-6.5114136-0.1653099-6.7872162-0.1653099s-3.7525024,0.1653099-5.4082031,0.1653099
				c-0.6064148,0-0.8822174-0.1104965-0.8822174-0.4411125c0-0.1653099,0.1104889-0.3314857,0.4411163-0.3314857
				c0.4967957,0,1.1588898-0.1096268,1.6556854-0.2201233c1.1032104-0.2209892,1.3790283-1.4347038,1.6000061-3.0355835
				c0.2758179-2.3169289,0.2758179-6.6767216,0.2758179-11.9735508v-9.7114353c0-8.6082191,0-10.1534176-0.1105042-11.9187374
				c-0.1104889-1.8766859-0.6621094-2.8145938-1.8758087-3.0903978c-0.6072998-0.1653084-1.3242188-0.2209913-1.7105103-0.2209913
				c-0.220993,0-0.4419861-0.1104957-0.4419861-0.3306168c0-0.3314869,0.2766724-0.4419826,0.8831024-0.4419826
				c1.8209991,0,5.297699,0.1661785,5.5735016,0.1661785s3.7525024-0.1661785,5.4073181-0.1661785
				c0.6072998,0,0.8831024,0.1104956,0.8831024,0.4419826c0,0.2201211-0.220993,0.3306168-0.4411163,0.3306168
				c-0.3862915,0-0.7177887,0.0556829-1.3798828,0.1661785c-1.4895172,0.275804-1.9315033,1.2137119-2.0420074,3.1452107
				c-0.1096191,1.7653198-0.1096191,3.3105183-0.1096191,11.9187374V26.4867611z"/>
			<path class="st1" d="M192.0609894,2.1524897C192.7230988,0.3314869,192.9440918,0,193.274704,0
				c0.3314819,0,0.5516052,0.2766741,1.2137146,1.9871813c0.8282776,2.096807,9.4913025,24.8858795,12.8575134,33.2731056
				c1.9863129,4.9113998,3.586319,5.7936249,4.745224,6.1251106c0.8274078,0.2758064,1.6556854,0.3306198,2.2072906,0.3306198
				c0.3306274,0,0.5516205,0.0556831,0.5516205,0.3314857c0,0.330616-0.4967957,0.4411125-1.1032257,0.4411125
				c-0.8282776,0-4.8557129,0-8.6638947-0.1104965c-1.0484009-0.0548134-1.6548309-0.0548134-1.6548309-0.3862991
				c0-0.2201195,0.1653137-0.330616,0.3863068-0.3854294c0.3306122-0.1104965,0.6620941-0.6072922,0.3306122-1.490387
				l-5.1315155-13.5744305c-0.1105042-0.2201214-0.220993-0.3306179-0.4967957-0.3306179h-11.8630524
				c-0.2766876,0-0.4419861,0.165308-0.5524902,0.4411125l-3.3105164,9.7671165
				c-0.4967957,1.3790207-0.7725983,2.7040977-0.7725983,3.6968193c0,1.1040878,1.158905,1.6000137,2.0968018,1.6000137h0.5516205
				c0.3862915,0,0.552475,0.1104927,0.552475,0.3314857c0,0.330616-0.3314819,0.4411125-0.8282776,0.4411125
				c-1.3242188,0-3.6968231-0.1653099-4.3041229-0.1653099c-0.6064148,0-3.6419983,0.1653099-6.234726,0.1653099
				c-0.7177887,0-1.0484161-0.1104965-1.0484161-0.4411125c0-0.220993,0.2201233-0.3314857,0.4959259-0.3314857
				c0.3863068,0,1.158905-0.0548134,1.6008911-0.1096268c2.5379181-0.3314857,3.6411285-2.4282951,4.6347198-5.1872063
				L192.0609894,2.1524897z M197.7998047,24.2246456c0.2758026,0,0.2758026-0.1661777,0.2201233-0.3862991l-5.2420197-14.8986406
				c-0.2758026-0.8282824-0.5516052-0.8282824-0.8274078,0l-4.8557281,14.8986406
				c-0.1104889,0.2758026,0,0.3862991,0.1653137,0.3862991H197.7998047z"/>
		</g>
	</g>
	<g>
		<path class="st1" d="M227.7702179,40.0839081c0,2.615593-2.0531006,4.6686859-4.7249298,4.6686859
			c-2.6437988,0-4.7531281-2.053093-4.7531281-4.6686859c0-2.5593605,2.1093292-4.6124535,4.7531281-4.6124535
			C225.7171173,35.4714546,227.7702179,37.5245476,227.7702179,40.0839081z M219.4733887,40.0839081
			c0,2.053093,1.5188141,3.6843643,3.5999146,3.6843643c2.0250854,0,3.515686-1.6312714,3.515686-3.656147
			c0-2.053093-1.4906006-3.7125778-3.5437012-3.7125778C220.9922028,36.3995476,219.4733887,38.0590324,219.4733887,40.0839081z
			 M222.3141022,42.5025978h-1.0687714v-4.6124573c0.4218292-0.0842438,1.0125427-0.1404724,1.7717438-0.1404724
			c0.8718719,0,1.265686,0.1404724,1.6030579,0.3373756c0.2531281,0.196907,0.4500427,0.5625,0.4500427,1.0125427
			c0,0.5062675-0.3936157,0.8998756-0.9561157,1.0687675v0.0562286c0.4498444,0.1686897,0.7029724,0.5062714,0.8436584,1.125
			c0.1406708,0.7029724,0.2249146,0.9843254,0.3375702,1.1530151h-1.1532135
			c-0.1406708-0.1686897-0.2249146-0.5905151-0.3655853-1.125c-0.0844574-0.5062714-0.3656006-0.7311897-0.9563141-0.7311897
			h-0.506073V42.5025978z M222.3421173,39.8870049h0.5062714c0.5907135,0,1.0687714-0.196907,1.0687714-0.6749611
			c0-0.4218216-0.3093719-0.7031746-0.9843292-0.7031746c-0.2813416,0-0.4782562,0.0282173-0.5907135,0.0564346V39.8870049z"/>
	</g>
</g>
</svg>
